<?xml version="1.0" encoding="utf-8"?>
<!-- Generator: Adobe Illustrator 13.0.0, SVG Export Plug-In . SVG Version: 6.00 Build 14948)  -->
<!DOCTYPE svg PUBLIC "-//W3C//DTD SVG 1.1//EN" "http://www.w3.org/Graphics/SVG/1.1/DTD/svg11.dtd">
<svg version="1.1" id="图层_1" xmlns="http://www.w3.org/2000/svg" xmlns:xlink="http://www.w3.org/1999/xlink" x="0px" y="0px"
	 width="196.189px" height="38.697px" viewBox="0 0 196.189 38.697" enable-background="new 0 0 196.189 38.697"
	 xml:space="preserve">
<g enable-background="new    ">
	<linearGradient id="SVGID_1_" gradientUnits="userSpaceOnUse" x1="14.238" y1="4.8953" x2="14.238" y2="31.5437">
		<stop  offset="0" style="stop-color:#6271B8"/>
		<stop  offset="1" style="stop-color:#974B91"/>
	</linearGradient>
	<path fill="url(#SVGID_1_)" d="M14.15,4.895c2.672,0,4.966,0.542,6.882,1.626s3.366,2.625,4.351,4.623s1.477,4.345,1.477,7.04
		c0,1.992-0.27,3.803-0.809,5.432s-1.348,3.041-2.426,4.236s-2.402,2.109-3.973,2.742s-3.369,0.949-5.396,0.949
		c-2.016,0-3.82-0.325-5.414-0.976s-2.924-1.567-3.99-2.751s-1.872-2.607-2.417-4.271s-0.817-3.463-0.817-5.396
		c0-1.98,0.284-3.797,0.853-5.449s1.392-3.059,2.47-4.219S7.33,6.433,8.877,5.818S12.181,4.895,14.15,4.895z M21.568,18.149
		c0-1.887-0.305-3.521-0.914-4.904s-1.479-2.429-2.61-3.138s-2.429-1.063-3.894-1.063c-1.043,0-2.007,0.196-2.892,0.589
		s-1.646,0.964-2.285,1.714s-1.143,1.708-1.512,2.874s-0.554,2.476-0.554,3.929c0,1.465,0.185,2.789,0.554,3.973
		s0.891,2.165,1.564,2.944s1.447,1.362,2.32,1.749s1.831,0.58,2.874,0.58c1.336,0,2.563-0.334,3.683-1.002s2.01-1.699,2.672-3.094
		S21.568,20.188,21.568,18.149z"/>
	<linearGradient id="SVGID_2_" gradientUnits="userSpaceOnUse" x1="39.1287" y1="11.9968" x2="39.1287" y2="31.5085">
		<stop  offset="0" style="stop-color:#6271B8"/>
		<stop  offset="1" style="stop-color:#974B91"/>
	</linearGradient>
	<path fill="url(#SVGID_2_)" d="M48.199,25.602c0,0.598-0.179,1.236-0.536,1.916s-0.902,1.327-1.635,1.942s-1.655,1.11-2.769,1.485
		s-2.367,0.563-3.762,0.563c-2.965,0-5.279-0.864-6.943-2.593s-2.496-4.046-2.496-6.952c0-1.969,0.381-3.709,1.143-5.221
		s1.863-2.681,3.305-3.507s3.164-1.239,5.168-1.239c1.242,0,2.382,0.182,3.419,0.545s1.916,0.832,2.637,1.406
		s1.271,1.187,1.652,1.837s0.571,1.257,0.571,1.819c0,0.574-0.214,1.061-0.642,1.459s-0.946,0.598-1.556,0.598
		c-0.398,0-0.729-0.103-0.993-0.308s-0.56-0.536-0.888-0.993c-0.586-0.891-1.198-1.559-1.837-2.004s-1.45-0.668-2.435-0.668
		c-1.418,0-2.561,0.554-3.428,1.661s-1.301,2.622-1.301,4.544c0,0.902,0.111,1.731,0.334,2.487s0.545,1.4,0.967,1.934
		s0.932,0.938,1.529,1.213s1.254,0.413,1.969,0.413c0.961,0,1.784-0.223,2.47-0.668s1.292-1.125,1.819-2.039
		c0.293-0.539,0.609-0.961,0.949-1.266s0.756-0.457,1.248-0.457c0.586,0,1.072,0.223,1.459,0.668S48.199,25.098,48.199,25.602z"/>
	<linearGradient id="SVGID_3_" gradientUnits="userSpaceOnUse" x1="60.6091" y1="11.9968" x2="60.6091" y2="31.5437">
		<stop  offset="0" style="stop-color:#6271B8"/>
		<stop  offset="1" style="stop-color:#974B91"/>
	</linearGradient>
	<path fill="url(#SVGID_3_)" d="M65.777,22.966H56.39c0.012,1.09,0.231,2.051,0.659,2.883s0.996,1.459,1.705,1.881
		s1.491,0.633,2.347,0.633c0.574,0,1.099-0.067,1.573-0.202s0.935-0.346,1.38-0.633s0.855-0.595,1.23-0.923s0.861-0.773,1.459-1.336
		c0.246-0.211,0.598-0.316,1.055-0.316c0.492,0,0.891,0.135,1.195,0.404s0.457,0.65,0.457,1.143c0,0.434-0.17,0.94-0.51,1.521
		s-0.853,1.137-1.538,1.67s-1.547,0.976-2.584,1.327s-2.229,0.527-3.577,0.527c-3.082,0-5.479-0.879-7.189-2.637
		s-2.566-4.143-2.566-7.154c0-1.418,0.211-2.733,0.633-3.946s1.037-2.253,1.846-3.12s1.805-1.532,2.988-1.995
		s2.496-0.694,3.938-0.694c1.875,0,3.483,0.396,4.825,1.187s2.347,1.813,3.015,3.067s1.002,2.531,1.002,3.832
		c0,1.207-0.346,1.989-1.037,2.347S67.031,22.966,65.777,22.966z M56.39,20.241h8.701c-0.117-1.641-0.56-2.868-1.327-3.683
		s-1.778-1.222-3.032-1.222c-1.195,0-2.177,0.413-2.944,1.239S56.554,18.624,56.39,20.241z"/>
	<linearGradient id="SVGID_4_" gradientUnits="userSpaceOnUse" x1="81.949" y1="11.9968" x2="81.949" y2="31.5437">
		<stop  offset="0" style="stop-color:#6271B8"/>
		<stop  offset="1" style="stop-color:#974B91"/>
	</linearGradient>
	<path fill="url(#SVGID_4_)" d="M85.904,28.837c-1.16,0.902-2.282,1.579-3.366,2.03s-2.3,0.677-3.647,0.677
		c-1.23,0-2.312-0.243-3.243-0.729s-1.649-1.146-2.153-1.978s-0.756-1.734-0.756-2.707c0-1.313,0.416-2.432,1.248-3.357
		s1.975-1.547,3.428-1.863c0.305-0.07,1.061-0.229,2.268-0.475s2.241-0.472,3.103-0.677s1.796-0.454,2.804-0.747
		c-0.059-1.266-0.313-2.194-0.765-2.786s-1.386-0.888-2.804-0.888c-1.219,0-2.136,0.17-2.751,0.51s-1.143,0.85-1.582,1.529
		s-0.75,1.128-0.932,1.345s-0.571,0.325-1.169,0.325c-0.539,0-1.005-0.173-1.397-0.519s-0.589-0.788-0.589-1.327
		c0-0.844,0.299-1.664,0.896-2.461s1.529-1.453,2.795-1.969s2.842-0.773,4.729-0.773c2.109,0,3.768,0.249,4.975,0.747
		s2.06,1.286,2.558,2.364s0.747,2.508,0.747,4.289c0,1.125-0.003,2.08-0.009,2.865s-0.015,1.658-0.026,2.619
		c0,0.902,0.149,1.843,0.448,2.821s0.448,1.608,0.448,1.89c0,0.492-0.231,0.94-0.694,1.345s-0.987,0.606-1.573,0.606
		c-0.492,0-0.979-0.231-1.459-0.694S86.443,29.716,85.904,28.837z M85.588,21.893c-0.703,0.258-1.726,0.53-3.067,0.817
		s-2.271,0.498-2.786,0.633s-1.008,0.398-1.477,0.791s-0.703,0.94-0.703,1.644c0,0.727,0.275,1.345,0.826,1.854
		s1.271,0.765,2.162,0.765c0.949,0,1.825-0.208,2.628-0.624s1.392-0.952,1.767-1.608c0.434-0.727,0.65-1.922,0.65-3.586V21.893z"/>
	<linearGradient id="SVGID_5_" gradientUnits="userSpaceOnUse" x1="103.5789" y1="12.032" x2="103.5789" y2="31.5437">
		<stop  offset="0" style="stop-color:#6271B8"/>
		<stop  offset="1" style="stop-color:#974B91"/>
	</linearGradient>
	<path fill="url(#SVGID_5_)" d="M99.527,14.686v0.58c0.844-1.113,1.767-1.931,2.769-2.452s2.153-0.782,3.454-0.782
		c1.266,0,2.396,0.275,3.393,0.826s1.74,1.33,2.232,2.338c0.316,0.586,0.521,1.219,0.615,1.898s0.141,1.547,0.141,2.602v8.93
		c0,0.961-0.22,1.688-0.659,2.18s-1.011,0.738-1.714,0.738c-0.715,0-1.295-0.252-1.74-0.756s-0.668-1.225-0.668-2.162v-7.998
		c0-1.582-0.22-2.792-0.659-3.63s-1.315-1.257-2.628-1.257c-0.855,0-1.635,0.255-2.338,0.765s-1.219,1.21-1.547,2.101
		c-0.234,0.715-0.352,2.051-0.352,4.008v6.012c0,0.973-0.226,1.702-0.677,2.188s-1.034,0.729-1.749,0.729
		c-0.691,0-1.26-0.252-1.705-0.756s-0.668-1.225-0.668-2.162V14.757c0-0.914,0.199-1.597,0.598-2.048s0.943-0.677,1.635-0.677
		c0.422,0,0.803,0.1,1.143,0.299s0.612,0.498,0.817,0.896S99.527,14.112,99.527,14.686z"/>
	<linearGradient id="SVGID_6_" gradientUnits="userSpaceOnUse" x1="135.1228" y1="5.3347" x2="135.1228" y2="31.5437">
		<stop  offset="0" style="stop-color:#6271B8"/>
		<stop  offset="1" style="stop-color:#974B91"/>
	</linearGradient>
	<path fill="url(#SVGID_6_)" d="M141.644,9.36h-10.283v6.592h8.596c0.797,0,1.392,0.179,1.784,0.536s0.589,0.835,0.589,1.433
		s-0.199,1.072-0.598,1.424s-0.99,0.527-1.775,0.527h-8.596v8.49c0,1.078-0.243,1.878-0.729,2.399s-1.11,0.782-1.872,0.782
		c-0.773,0-1.403-0.264-1.89-0.791s-0.729-1.324-0.729-2.391V8.534c0-0.75,0.111-1.362,0.334-1.837s0.571-0.82,1.046-1.037
		s1.081-0.325,1.819-0.325h12.305c0.832,0,1.45,0.185,1.854,0.554s0.606,0.853,0.606,1.45c0,0.609-0.202,1.099-0.606,1.468
		S142.476,9.36,141.644,9.36z"/>
	<linearGradient id="SVGID_7_" gradientUnits="userSpaceOnUse" x1="149.5808" y1="4.8953" x2="149.5808" y2="31.5437">
		<stop  offset="0" style="stop-color:#6271B8"/>
		<stop  offset="1" style="stop-color:#974B91"/>
	</linearGradient>
	<path fill="url(#SVGID_7_)" d="M147.181,28.626V7.813c0-0.961,0.214-1.688,0.642-2.18s1.005-0.738,1.731-0.738
		s1.313,0.243,1.758,0.729s0.668,1.216,0.668,2.188v20.813c0,0.973-0.226,1.702-0.677,2.188s-1.034,0.729-1.749,0.729
		c-0.703,0-1.274-0.252-1.714-0.756S147.181,29.563,147.181,28.626z"/>
	<linearGradient id="SVGID_8_" gradientUnits="userSpaceOnUse" x1="165.3484" y1="12.032" x2="165.3484" y2="31.5437">
		<stop  offset="0" style="stop-color:#6271B8"/>
		<stop  offset="1" style="stop-color:#974B91"/>
	</linearGradient>
	<path fill="url(#SVGID_8_)" d="M174.902,21.788c0,1.43-0.223,2.748-0.668,3.955s-1.09,2.244-1.934,3.111s-1.852,1.532-3.023,1.995
		s-2.49,0.694-3.955,0.694c-1.453,0-2.76-0.234-3.92-0.703s-2.165-1.14-3.015-2.013s-1.494-1.904-1.934-3.094
		s-0.659-2.505-0.659-3.946c0-1.453,0.223-2.783,0.668-3.99s1.084-2.238,1.916-3.094s1.84-1.515,3.023-1.978s2.49-0.694,3.92-0.694
		c1.453,0,2.771,0.234,3.955,0.703s2.197,1.137,3.041,2.004s1.485,1.898,1.925,3.094S174.902,20.346,174.902,21.788z
		 M170.086,21.788c0-1.957-0.431-3.48-1.292-4.57s-2.019-1.635-3.472-1.635c-0.938,0-1.764,0.243-2.479,0.729
		s-1.266,1.204-1.652,2.153s-0.58,2.057-0.58,3.322c0,1.254,0.19,2.35,0.571,3.287s0.926,1.655,1.635,2.153s1.544,0.747,2.505,0.747
		c1.453,0,2.61-0.548,3.472-1.644S170.086,23.721,170.086,21.788z"/>
	<linearGradient id="SVGID_9_" gradientUnits="userSpaceOnUse" x1="190.8367" y1="12.032" x2="190.8367" y2="31.5437">
		<stop  offset="0" style="stop-color:#6271B8"/>
		<stop  offset="1" style="stop-color:#974B91"/>
	</linearGradient>
	<path fill="url(#SVGID_9_)" d="M181.67,15.02l3.129,10.723l2.848-9.967c0.305-1.043,0.53-1.755,0.677-2.136s0.422-0.744,0.826-1.09
		s0.958-0.519,1.661-0.519c0.715,0,1.274,0.173,1.679,0.519s0.688,0.721,0.853,1.125s0.393,1.104,0.686,2.101l2.848,9.967
		l3.164-10.723c0.211-0.773,0.381-1.333,0.51-1.679s0.346-0.65,0.65-0.914s0.744-0.396,1.318-0.396s1.072,0.199,1.494,0.598
		s0.633,0.867,0.633,1.406c0,0.492-0.182,1.236-0.545,2.232l-3.92,11.496c-0.34,0.973-0.604,1.676-0.791,2.109
		s-0.483,0.82-0.888,1.16s-0.958,0.51-1.661,0.51c-0.727,0-1.298-0.182-1.714-0.545s-0.724-0.809-0.923-1.336
		s-0.416-1.213-0.65-2.057l-2.742-9.352l-2.654,9.352c-0.352,1.301-0.732,2.282-1.143,2.944s-1.131,0.993-2.162,0.993
		c-0.527,0-0.976-0.103-1.345-0.308s-0.677-0.498-0.923-0.879s-0.463-0.832-0.65-1.354s-0.334-0.935-0.439-1.239l-3.885-11.496
		c-0.387-1.078-0.58-1.822-0.58-2.232c0-0.516,0.205-0.979,0.615-1.389s0.914-0.615,1.512-0.615c0.797,0,1.336,0.226,1.617,0.677
		S181.353,13.93,181.67,15.02z"/>
</g>
</svg>
