<svg xmlns="http://www.w3.org/2000/svg" id="au-national-route-6" width="43" height="20" viewBox="0 0 43 20"><g><path d="M0,0 H43 V20 H0 Z" fill="none"/><path d="M41.87,3V13a3,3,0,0,1-2.26,3c-1.85.74-18.11,3-18.11,3S5.24,16.74,3.39,16a3,3,0,0,1-2.26-3V3H41.87m0-1H1.13a1,1,0,0,0-1,1V13A4,4,0,0,0,3,16.93c1.91.77,16.67,2.83,18.34,3.06h.28c1.67-.23,16.43-2.29,18.34-3.06A4,4,0,0,0,42.87,13V3a1,1,0,0,0-1-1Z" fill="hsla(217, 39%, 14%, 0.85)"/><path d="M1.13,3V13a3,3,0,0,0,2.26,3c1.85.74,18.11,3,18.11,3s16.26-2.26,18.11-3a3,3,0,0,0,2.26-3V3Z" fill="hsla(217, 41%, 72%, 0.85)"/></g></svg>