<svg xmlns="http://www.w3.org/2000/svg" id="dot-9" width="11" height="11" viewBox="0 0 11 11"><g><path d="M2,5.5A3.5,3.5,0,1,0,5.5,2,3.5,3.5,0,0,0,2,5.5" fill="hsla(217, 39%, 11%, 0.85)" opacity="0.25"/><path d="M2.5,5.5a3,3,0,1,0,3-3,3,3,0,0,0-3,3" fill="hsla(217, 39%, 11%, 0.85)" opacity="0.5"/><path d="M3,5.5A2.5,2.5,0,1,0,5.5,3,2.5,2.5,0,0,0,3,5.5" fill="hsla(217, 39%, 11%, 0.85)" opacity="0.75"/><path d="M3.5,5.5a2,2,0,1,0,2-2,2,2,0,0,0-2,2" fill="hsla(217, 39%, 11%, 0.85)"/><path d="M4,5.5A1.5,1.5,0,1,0,5.5,4,1.5,1.5,0,0,0,4,5.5" fill="hsla(217, 40%, 74%, 0.85)"/></g></svg>