<svg xmlns="http://www.w3.org/2000/svg" id="it-motorway-2" width="20" height="20" viewBox="0 0 20 20"><g><path d="M0,0 H20 V20 H0 Z" fill="none"/><path d="M10,1l7,2,2,7-2,7-7,2L3,17,1,10,3,3l7-2m0-1a.9979.9979,0,0,0-.2747.0385l-7,2a1,1,0,0,0-.6868.6868l-2,7a1,1,0,0,0,0,.5494l2,7a1,1,0,0,0,.6868.6868l7,2a.9993.9993,0,0,0,.5494,0l7-2a1,1,0,0,0,.6868-.6868l2-7a1,1,0,0,0,0-.5494l-2-7a1,1,0,0,0-.6868-.6868l-7-2A.9979.9979,0,0,0,10,0Z" fill="hsla(217, 41%, 72%, 0.85)"/><path d="M10,19,17,17,19,10,17,3,10,1,3,3,1,10,3,17,10,19 Z" fill="hsla(217, 39%, 19%, 0.85)"/></g></svg>