<svg xmlns="http://www.w3.org/2000/svg" id="mobile-phone-11" width="17" height="17" viewBox="0 0 17 17"><g><path d="M0,0 H17 V17 H0 Z" fill="none"/><path d="M10 5v-0.5a0.5 0.5 0 0 0-1 0V5H7a1 1 0 0 0-1 1v6a1 1 0 0 0 1 1h3a1 1 0 0 0 1-1V6a1 1 0 0 0-1-1zM8 12H7V11h1z m0-2H7V9h1z m2 2H9V11h1z m0-2H9V9h1z m0-2H7V6h3z" fill="hsla(217, 40%, 74%, 0.85)" stroke="hsla(217, 39%, 11%, 0.85)" stroke-linejoin="round" stroke-miterlimit="4px" stroke-width="2"/><path d="M10 5v-0.5a0.5 0.5 0 0 0-1 0V5H7a1 1 0 0 0-1 1v6a1 1 0 0 0 1 1h3a1 1 0 0 0 1-1V6a1 1 0 0 0-1-1zM8 12H7V11h1z m0-2H7V9h1z m2 2H9V11h1z m0-2H9V9h1z m0-2H7V6h3z" fill="hsla(217, 40%, 74%, 0.85)"/></g></svg>