<svg xmlns="http://www.w3.org/2000/svg" id="road-closure" width="19" height="19" viewBox="0 0 19 19"><g><path d="M17.2774,9.5A7.7742,7.7742,0,1,1,9.5,1.7227,7.7777,7.7777,0,0,1,17.2774,9.5Z" fill="hsla(217, 39%, 19%, 0.85)"/><path d="M9.5,0A9.5,9.5,0,1,0,19,9.5,9.4994,9.4994,0,0,0,9.5,0Zm0,17.271A7.7742,7.7742,0,1,1,17.2774,9.5,7.7763,7.7763,0,0,1,9.5,17.271Z" fill="hsla(217, 41%, 72%, 0.85)"/><path d="M4.4426,8.2473H14.5613c.0726,0,.1315.085.1315.19v2.12c0,.1049-.0589.19-.1315.19H4.4426c-.0726,0-.1314-.085-.1314-.19v-2.12C4.3112,8.3323,4.37,8.2473,4.4426,8.2473Z" fill="hsla(217, 41%, 72%, 0.85)"/><path d="M0,0 H19 V19 H0 Z" fill="none"/></g></svg>